<?xml version="1.0" encoding="UTF-8"?>
<svg xmlns="http://www.w3.org/2000/svg" width="2828" height="444" viewBox="0 0 2828 444" version="1.1">
  <path d="M 1621.040 5.115 C 1563.897 10.185, 1520.249 46.741, 1511.468 96.881 C 1509.743 106.729, 1509.555 125.653, 1511.072 136.566 C 1513.594 154.699, 1521.357 173.715, 1532.004 187.844 C 1545.617 205.911, 1560.490 216.281, 1608.829 241.411 C 1652.716 264.227, 1670.120 277.614, 1680.005 296.160 C 1689.268 313.541, 1690.434 332.453, 1683.124 346.749 C 1670.380 371.667, 1617.609 378.274, 1574.119 360.395 C 1564.415 356.406, 1553.886 350.837, 1543.685 344.298 C 1539.892 341.867, 1536.611 340.056, 1536.393 340.274 C 1536.175 340.491, 1529.898 355.481, 1522.443 373.584 L 1508.888 406.499 1511.694 408.756 C 1516.509 412.628, 1539.998 423.724, 1551.244 427.438 C 1557.153 429.389, 1567.728 432.213, 1574.744 433.712 C 1586.883 436.307, 1588.854 436.440, 1615.500 436.466 C 1640.600 436.490, 1644.743 436.255, 1655.500 434.201 C 1669.437 431.539, 1687.756 425.659, 1697.682 420.660 C 1722.789 408.017, 1743.325 387.729, 1753.660 365.361 C 1768.638 332.942, 1765.069 285.719, 1745.221 253.690 C 1730.417 229.801, 1713.374 216.398, 1667.922 192.901 C 1631.939 174.298, 1616.455 164.322, 1602.886 151 C 1589.589 137.946, 1584.320 126.430, 1585.298 112.563 C 1587.444 82.161, 1611.723 65.437, 1648.590 68.965 C 1672.407 71.245, 1692.752 78.381, 1713.384 91.691 C 1717.170 94.134, 1720.626 95.765, 1721.065 95.316 C 1721.504 94.867, 1726.853 80.381, 1732.951 63.124 C 1743.353 33.685, 1743.928 31.661, 1742.269 30.347 C 1737.723 26.745, 1724.740 19.669, 1717.656 16.933 C 1699.974 10.102, 1681.792 6.590, 1655.991 5.021 C 1637.614 3.903, 1634.599 3.911, 1621.040 5.115 M 2626.455 7.250 C 2626.189 7.938, 2588.702 103.225, 2543.150 219 L 2460.327 429.500 2501.848 429.761 C 2527.103 429.920, 2543.590 429.653, 2543.934 429.079 C 2544.245 428.560, 2550.800 409.658, 2558.500 387.076 L 2572.500 346.016 2644 346.258 L 2715.500 346.500 2730.500 388.239 L 2745.500 429.977 2786.750 429.989 C 2809.438 429.995, 2828.006 429.663, 2828.014 429.250 C 2828.021 428.837, 2790.334 333.442, 2744.264 217.260 L 2660.500 6.020 2643.719 6.010 C 2631.210 6.003, 2626.814 6.318, 2626.455 7.250 M 1077 7.641 C 1073.975 7.789, 1053.275 8.643, 1031 9.538 C 1008.725 10.433, 989.487 11.362, 988.250 11.602 L 986 12.038 986 221.019 L 986 430 1025 430 L 1064 430 1064 342.889 L 1064 255.779 1076.250 256.411 C 1082.987 256.758, 1093.450 257.306, 1099.500 257.627 L 1110.500 258.212 1166 344.099 L 1221.500 429.986 1264.849 429.993 L 1308.198 430 1306.244 426.750 C 1303.719 422.548, 1187.079 244.876, 1185.828 243.326 C 1185.149 242.484, 1187.295 241.021, 1193.418 238.151 C 1217.531 226.852, 1238.111 206.101, 1250.543 180.552 C 1260.633 159.817, 1263.907 138.430, 1260.961 112.500 C 1254.459 55.267, 1218.664 21.773, 1152.500 11.008 C 1132.031 7.677, 1102.777 6.373, 1077 7.641 M 2237 8.649 C 2233.975 8.803, 2218.225 9.406, 2202 9.990 C 2185.775 10.573, 2169.688 11.317, 2166.250 11.642 L 2160 12.233 2160 221.116 L 2160 430 2232.539 430 C 2276.753 430, 2308.871 429.587, 2314.789 428.942 C 2353.442 424.732, 2385.232 411.071, 2408.826 388.532 C 2423.010 374.982, 2431.735 361.308, 2437.424 343.710 C 2446.752 314.860, 2443.892 273.730, 2430.736 247.500 C 2419.722 225.541, 2399.313 207.239, 2374.855 197.385 C 2371.360 195.977, 2368.155 194.497, 2367.734 194.097 C 2367.313 193.696, 2370.463 191.158, 2374.734 188.457 C 2383.158 183.129, 2397.102 170.354, 2402.457 163.058 C 2414.261 146.978, 2419.161 127.275, 2417.036 104.440 C 2415.697 90.046, 2413.063 79.967, 2407.681 68.646 C 2392.153 35.979, 2357.206 15.139, 2308.506 9.504 C 2296.771 8.146, 2256.413 7.663, 2237 8.649 M 1356 221 L 1356 430 1393.500 430 L 1431 430 1431 221 L 1431 12 1393.500 12 L 1356 12 1356 221 M 1825 221 L 1825 430 1957 430 L 2089 430 2089 396.500 L 2089 363 1994.500 363 L 1900 363 1900 301 L 1900 239 1969 239 L 2038 239 2038 207 L 2038 175 1969 175 L 1900 175 1900 126.500 L 1900 78 1996 78 L 2092 78 2092 45 L 2092 12 1958.500 12 L 1825 12 1825 221 M 2241.250 71.693 L 2235 72.095 2235 121.486 L 2235 170.877 2239.489 171.551 C 2241.959 171.921, 2255.121 172.010, 2268.739 171.749 C 2295.918 171.227, 2302.777 170.100, 2315.759 164.026 C 2322.927 160.671, 2332.004 152.555, 2335.766 146.137 C 2343.578 132.807, 2344.243 109.157, 2337.193 95.370 C 2332.301 85.801, 2320.789 77.767, 2306.314 73.820 C 2299.414 71.938, 2295.518 71.666, 2273 71.490 C 2258.975 71.380, 2244.688 71.471, 2241.250 71.693 M 1076.500 75.668 C 1074.300 75.851, 1070.588 76.253, 1068.250 76.562 L 1064 77.123 1064 134.489 L 1064 191.856 1069.750 192.629 C 1080.601 194.089, 1115.688 193.496, 1127.762 191.650 C 1166.761 185.685, 1181.517 171.125, 1183.652 136.500 C 1185.757 102.379, 1170.496 85.146, 1132.352 78.571 C 1116.303 75.804, 1090.813 74.480, 1076.500 75.668 M 2618.928 211.857 L 2594.356 287.500 2643.335 287.760 C 2670.274 287.902, 2692.463 287.871, 2692.644 287.690 C 2692.932 287.401, 2644.243 136.873, 2643.708 136.397 C 2643.593 136.296, 2632.443 170.253, 2618.928 211.857 M 2246.250 229.672 L 2235 230.066 2235 298.487 L 2235 366.909 2238.750 367.672 C 2240.813 368.091, 2254.425 368.449, 2269 368.467 C 2290.710 368.494, 2297.306 368.163, 2305.490 366.637 C 2345.627 359.153, 2362.737 340.463, 2364.662 302 C 2365.436 286.528, 2363.364 274.450, 2358.007 263.213 C 2349.390 245.136, 2334.051 235.949, 2305 231.464 C 2294.982 229.918, 2265.186 229.009, 2246.250 229.672 M 478.009 356.090 C 452.463 358.548, 431.599 367.191, 419.189 380.457 C 412.030 388.110, 409.362 394.966, 410.338 403.203 C 412.487 421.350, 435.953 437.254, 468.328 442.504 C 480.099 444.413, 503.888 444.420, 515.500 442.517 C 543.769 437.885, 565.389 426.123, 572.555 411.477 C 574.847 406.792, 575.168 405.056, 574.815 399.258 C 574.328 391.262, 572.301 386.663, 566.339 380.033 C 554.941 367.355, 532.888 358.510, 506.500 356.034 C 494.294 354.888, 490.413 354.896, 478.009 356.090" stroke="none" fill="#888888" fill-rule="evenodd"></path>
  <path d="M 343.500 14.332 C 325.900 22.139, 274.712 44.717, 229.750 64.506 C 184.787 84.295, 148 100.783, 148 101.146 C 148 101.508, 152.613 99.774, 158.250 97.291 C 192.863 82.046, 255.557 65.792, 309.506 58.075 C 397.257 45.524, 469.894 50.115, 522.143 71.514 C 552.415 83.913, 568.891 99.367, 571.959 118.240 C 574.772 135.546, 562.695 158.773, 542.832 174.260 C 533.961 181.176, 507.504 200.581, 505.008 202.001 C 504.188 202.468, 503.761 203.095, 504.060 203.393 C 504.744 204.078, 910.152 226.182, 910.765 225.568 C 911.013 225.320, 909.705 224.479, 907.858 223.698 C 906.011 222.918, 786.275 172.266, 641.779 111.140 C 497.282 50.013, 378.257 0.031, 377.279 0.069 C 376.300 0.107, 361.100 6.525, 343.500 14.332 M 314.364 117.068 C 292.126 118.487, 266.014 123.913, 242.758 131.946 C 215.830 141.247, 0.957 230.501, 0.309 232.654 C 0.170 233.119, 29.697 246.253, 65.927 261.840 L 131.798 290.179 243.149 242.444 C 304.392 216.189, 359.576 192.324, 365.779 189.409 C 386.700 179.582, 405.029 165.743, 409.981 156.037 C 412.366 151.363, 412.618 144.096, 410.536 140.069 C 406.225 131.734, 389.055 123.806, 366.075 119.540 C 358.316 118.099, 333.164 115.834, 328.500 116.155 C 327.400 116.231, 321.039 116.642, 314.364 117.068 M 293.254 292.329 C 251.319 310.573, 217.006 325.736, 217.004 326.025 C 217.002 326.314, 244.195 338.793, 277.433 353.755 L 337.865 380.960 348.183 373.194 C 393.317 339.220, 446.668 320.945, 500.500 321.016 C 545.787 321.077, 597.628 330.594, 624.883 343.852 L 631.266 346.957 688.633 322.369 C 726.943 305.950, 746 297.298, 746 296.325 C 746 294.101, 744.087 290.845, 740.642 287.206 C 735.374 281.643, 728.632 280.315, 694 278.020 C 616.184 272.863, 382.111 258.971, 374.837 259.079 C 370.110 259.149, 360.784 262.949, 293.254 292.329" stroke="none" fill="#888888" fill-rule="evenodd"></path>
</svg>
